<?xml version="1.0" encoding="utf-8"?>
<!-- Generator: Adobe Illustrator 27.5.0, SVG Export Plug-In . SVG Version: 6.00 Build 0)  -->
<svg version="1.1" id="Layer_1" xmlns="http://www.w3.org/2000/svg" xmlns:xlink="http://www.w3.org/1999/xlink" x="0px" y="0px"
	 viewBox="0 0 1304.2 205.4" style="enable-background:new 0 0 1304.2 205.4;" xml:space="preserve">
<style type="text/css">
	.st0{fill:url(#SVGID_1_);}
	.st1{fill:#FFFFFF;}
</style>
<g>
	<g>
		<g>
			<linearGradient id="SVGID_1_" gradientUnits="userSpaceOnUse" x1="0" y1="89.7553" x2="353.6848" y2="89.7553">
				<stop  offset="0" style="stop-color:#CB7FF5"/>
				<stop  offset="1" style="stop-color:#C418FC"/>
			</linearGradient>
			<path class="st0" d="M249.3,1.8L219.5,31l37,36.3L210,113.1L94.9,0L0,93.3l87.7,86.2l65.1-64.1l57.1,56.2l76.3-75l37.8,37.1
				l29.7-29.2L249.3,1.8z M87.7,121L59.4,93.3l35.5-34.9l28.2,27.8L87.7,121z"/>
		</g>
	</g>
</g>
<g>
	<path class="st1" d="M525.9,96.7c-4.1,7.3-10.3,13.3-18.8,17.8c-8.4,4.5-18.9,6.8-31.4,6.8h-23.1v55h-37.3V23h60.5
		c12.2,0,22.5,2.1,31,6.3c8.4,4.2,14.8,10,19,17.5c4.2,7.4,6.3,15.9,6.3,25.5C532.1,81.2,530,89.3,525.9,96.7z M488.8,86.5
		c3.5-3.3,5.2-8.1,5.2-14.2c0-6.1-1.7-10.8-5.2-14.2c-3.5-3.3-8.8-5-15.9-5h-20.3v38.4h20.3C480,91.5,485.4,89.9,488.8,86.5z"/>
	<path class="st1" d="M665.6,124.3h-84.5c0.6,7.6,3,13.4,7.3,17.3c4.3,4,9.6,6,15.8,6c9.3,0,15.8-3.9,19.4-11.8h39.7
		c-2,8-5.7,15.2-11,21.6c-5.3,6.4-12,11.4-20,15.1c-8,3.6-17,5.5-26.8,5.5c-11.9,0-22.6-2.5-31.9-7.6c-9.3-5.1-16.6-12.4-21.8-21.8
		c-5.2-9.5-7.9-20.5-7.9-33.2s2.6-23.7,7.7-33.2c5.2-9.5,12.4-16.7,21.7-21.8c9.3-5.1,20-7.6,32.1-7.6c11.8,0,22.3,2.5,31.4,7.4
		c9.2,4.9,16.3,12,21.5,21.2c5.2,9.2,7.7,19.9,7.7,32.1C666.3,116.9,666.1,120.5,665.6,124.3z M628.1,103.5c0-6.4-2.2-11.5-6.5-15.3
		c-4.4-3.8-9.8-5.7-16.4-5.7c-6.3,0-11.5,1.8-15.8,5.5c-4.3,3.6-6.9,8.8-8,15.5H628.1z"/>
	<path class="st1" d="M794.3,67c8.5,9.2,12.8,21.9,12.8,38.1v71.1h-37.1v-66.1c0-8.1-2.1-14.5-6.3-19c-4.2-4.5-9.9-6.8-17-6.8
		c-7.1,0-12.8,2.3-17,6.8c-4.2,4.5-6.3,10.8-6.3,19v66.1h-37.3V54.4h37.3v16.1c3.8-5.4,8.9-9.6,15.3-12.8c6.4-3.1,13.6-4.7,21.6-4.7
		C774.4,53.1,785.8,57.7,794.3,67z"/>
	<path class="st1" d="M942.1,202.4L922.5,176c-5.8,1.2-11.5,1.7-17,1.7c-14.4,0-27.6-3.3-39.6-10c-12-6.7-21.5-16-28.6-28
		c-7.1-12-10.6-25.5-10.6-40.5c0-15,3.5-28.4,10.6-40.4c7.1-11.9,16.6-21.2,28.6-27.9c12-6.7,25.2-10,39.6-10
		c14.4,0,27.6,3.3,39.6,10c12,6.7,21.5,16,28.4,27.9c6.9,11.9,10.4,25.4,10.4,40.4c0,13.1-2.7,25.1-8,35.9
		c-5.3,10.8-12.7,19.8-22.2,27l33.6,40.4H942.1z M875.9,131.6c7.3,8.1,17.2,12.1,29.6,12.1c12.2,0,22-4.1,29.4-12.2
		c7.3-8.1,11-18.9,11-32.3c0-13.5-3.7-24.3-11-32.4c-7.3-8.1-17.1-12.1-29.4-12.1c-12.4,0-22.2,4-29.6,12c-7.3,8-11,18.8-11,32.5
		C864.9,112.7,868.5,123.5,875.9,131.6z"/>
	<path class="st1" d="M1125.2,54.4v121.8h-37.3v-16.6c-3.8,5.4-8.9,9.7-15.4,13c-6.5,3.3-13.6,4.9-21.5,4.9
		c-9.3,0-17.5-2.1-24.7-6.2c-7.1-4.1-12.7-10.1-16.6-18c-3.9-7.9-5.9-17.1-5.9-27.7V54.4h37.1v66.1c0,8.1,2.1,14.5,6.3,19
		c4.2,4.5,9.9,6.8,17,6.8c7.3,0,13-2.3,17.2-6.8c4.2-4.5,6.3-10.8,6.3-19V54.4H1125.2z"/>
	<path class="st1" d="M1154.8,36c-4.1-3.9-6.2-8.6-6.2-14.3c0-5.8,2.1-10.7,6.2-14.5c4.1-3.9,9.5-5.8,16-5.8
		c6.4,0,11.7,1.9,15.8,5.8c4.1,3.9,6.2,8.7,6.2,14.5c0,5.7-2.1,10.4-6.2,14.3c-4.1,3.9-9.4,5.8-15.8,5.8
		C1164.3,41.8,1158.9,39.9,1154.8,36z M1189.4,54.4v121.8h-37.3V54.4H1189.4z"/>
	<path class="st1" d="M1251.4,145.4h52.8v30.8h-94.5v-29.7l50.6-61.3h-50.2V54.4h93v29.7L1251.4,145.4z"/>
</g>
</svg>
